<?xml version="1.0" encoding="utf-8"?>
<!-- Generator: Adobe Illustrator 22.0.1, SVG Export Plug-In . SVG Version: 6.00 Build 0)  -->
<svg version="1.1" id="Layer_1" xmlns="http://www.w3.org/2000/svg" xmlns:xlink="http://www.w3.org/1999/xlink" x="0px" y="0px"
	 width="175px" height="242px" viewBox="0 0 175 242" style="enable-background:new 0 0 175 242;" xml:space="preserve">
<style type="text/css">
	.st0{fill:#DB9715;}
	.st1{fill:#FFFFFF;}
</style>
<path class="st0" d="M110.8,52.1H122v41.6c0,3.4,0.2,6.6,0.6,9.5c0.2,1.7,0.5,2.9,0.7,3.9l0.5,1.6l0.7,1.7c1.2,3.2,3.2,5.9,5.8,8.1
	h-27.7c2.7-2.2,4.7-4.8,5.9-8.1l0.6-1.7l0.5-1.6c0.3-0.9,0.5-2.2,0.7-3.9c0.4-2.9,0.6-6.1,0.6-9.5v-19l-23.1,39.2L64.7,74.7v19
	c0,3.4,0.2,6.6,0.6,9.5c0.2,1.7,0.5,2.9,0.7,3.9l0.5,1.6l0.6,1.7c1.2,3.2,3.2,5.9,5.8,8.1H45.2c2.7-2.2,4.6-4.8,5.9-8.1l0.6-1.7
	l0.5-1.6c0.3-0.9,0.5-2.2,0.7-3.9c0.4-2.9,0.6-6.1,0.6-9.5V52.1h11.2l0,0l23.1,39.1L110.8,52.1C110.8,52.2,110.8,52.1,110.8,52.1z"
	/>
<polygon class="st0" points="87.7,0 90.2,7.2 97.9,7.2 91.7,11.7 94,19 87.7,14.5 81.5,19 83.8,11.7 77.6,7.2 85.3,7.2 "/>
<polygon class="st0" points="87.7,170.7 85.3,163.5 77.6,163.5 83.8,159 81.5,151.7 87.7,156.2 94,151.7 91.7,159 97.9,163.5 
	90.2,163.5 "/>
<polygon class="st0" points="131.1,159.3 125.4,154.2 118.7,158 121.8,151 116.1,145.9 123.7,146.7 126.9,139.8 128.6,147.2 
	136.2,148 129.6,151.8 "/>
<polygon class="st0" points="162.9,128 155.3,126.5 151.4,133.1 150.6,125.5 143,123.9 150.1,120.8 149.3,113.2 154.5,118.8 
	161.6,115.8 157.8,122.4 "/>
<polygon class="st0" points="174.5,85.3 167.2,87.7 167.1,95.3 162.6,89.2 155.2,91.5 159.7,85.3 155.2,79.2 162.6,81.5 167.1,75.4 
	167.2,83 "/>
<polygon class="st0" points="162.9,42.7 157.8,48.4 161.6,54.9 154.5,51.9 149.3,57.5 150.1,50 143,46.8 150.6,45.2 151.4,37.7 
	155.3,44.2 "/>
<polygon class="st0" points="131.1,11.4 129.6,18.9 136.2,22.7 128.6,23.5 126.9,30.9 123.7,24 116.1,24.8 121.8,19.7 118.7,12.7 
	125.4,16.5 "/>
<polygon class="st0" points="44.4,11.4 50.1,16.5 56.8,12.7 53.7,19.7 59.5,24.8 51.8,24 48.6,30.9 46.9,23.5 39.3,22.7 45.9,18.9 
	"/>
<polygon class="st0" points="12.6,42.7 20.2,44.2 24.1,37.7 24.9,45.2 32.5,46.8 25.4,50 26.2,57.5 21,51.9 13.9,54.9 17.8,48.4 "/>
<polygon class="st0" points="1,85.4 8.3,83 8.4,75.4 12.9,81.5 20.3,79.2 15.8,85.4 20.3,91.5 12.9,89.2 8.4,95.3 8.3,87.7 "/>
<polygon class="st0" points="12.6,128 17.8,122.4 13.9,115.8 21,118.8 26.2,113.2 25.4,120.8 32.5,123.9 24.9,125.5 24.1,133.1 
	20.2,126.5 "/>
<polygon class="st0" points="44.4,159.3 45.9,151.8 39.3,148 46.9,147.2 48.6,139.8 51.8,146.7 59.5,145.9 53.7,151 56.8,158 
	50.1,154.2 "/>
<polygon class="st0" points="1,213.3 1,188.1 8.6,188.1 13.2,205.3 17.7,188.1 25.4,188.1 25.4,213.3 20.6,213.3 20.6,193.5 
	15.6,213.3 10.7,213.3 5.7,193.5 5.7,213.3 "/>
<path class="st0" d="M53.2,213.3h-5.5l-2.2-5.7H35.3l-2.1,5.7h-5.4l9.8-25.2H43L53.2,213.3z M43.8,203.4l-3.5-9.4l-3.4,9.4H43.8z"/>
<polygon class="st0" points="56,213.3 56,188.3 61.1,188.3 61.1,209.1 73.8,209.1 73.8,213.3 "/>
<polygon class="st0" points="77.5,213.3 77.5,188.3 82.6,188.3 82.6,209.1 95.3,209.1 95.3,213.3 "/>
<path class="st0" d="M97.9,200.9c0-2.6,0.4-4.7,1.2-6.5c0.6-1.3,1.4-2.4,2.3-3.5c1-1,2.1-1.8,3.3-2.3c1.6-0.7,3.4-1,5.4-1
	c3.7,0,6.7,1.1,8.9,3.5c2.2,2.3,3.3,5.5,3.3,9.6s-1.1,7.3-3.3,9.6c-2.2,2.3-5.2,3.4-8.9,3.4c-3.8,0-6.7-1.1-8.9-3.4
	C99,208.1,97.9,204.9,97.9,200.9 M103.1,200.7c0,2.9,0.7,5,2,6.5s3,2.2,5,2.2s3.7-0.7,5-2.2s1.9-3.6,1.9-6.6c0-2.9-0.6-5-1.9-6.5
	c-1.3-1.4-2.9-2.1-5-2.1s-3.8,0.7-5.1,2.2C103.8,195.6,103.1,197.8,103.1,200.7"/>
<path class="st0" d="M142.5,204.1l4.9,1.6c-0.8,2.8-2,4.8-3.8,6.1s-4,2-6.7,2c-3.3,0-6.1-1.1-8.3-3.4c-2.2-2.3-3.2-5.4-3.2-9.4
	c0-4.2,1.1-7.5,3.3-9.8c2.2-2.3,5-3.5,8.5-3.5c3.1,0,5.6,0.9,7.5,2.7c1.1,1.1,2,2.6,2.6,4.6l-5,1.2c-0.3-1.3-0.9-2.3-1.9-3.1
	c-0.9-0.8-2.1-1.1-3.4-1.1c-1.9,0-3.4,0.7-4.6,2c-1.2,1.3-1.7,3.5-1.7,6.5c0,3.2,0.6,5.5,1.7,6.8c1.1,1.4,2.6,2,4.5,2
	c1.4,0,2.5-0.4,3.5-1.3C141.3,207.3,142,205.9,142.5,204.1"/>
<path class="st0" d="M174.5,213.3H169l-2.2-5.7h-10.1l-2.1,5.7h-5.4l9.8-25.2h5.4L174.5,213.3z M165.1,203.4l-3.5-9.4l-3.4,9.4
	H165.1z"/>
<path class="st1" d="M7.7,233.3c-0.2-1.4-1-2.1-2.6-2.1c-0.7,0-1.2,0.1-1.7,0.4c-0.4,0.3-0.7,0.7-0.7,1.4c0,0.4,0.1,0.6,0.4,0.9
	c0.2,0.2,0.6,0.4,1,0.5c0.4,0.1,0.8,0.2,1.3,0.3s1,0.2,1.4,0.3c0.5,0.1,0.9,0.3,1.3,0.5s0.7,0.5,1,0.9c0.2,0.4,0.4,0.9,0.4,1.4
	s-0.1,1-0.4,1.4c-0.2,0.4-0.6,0.7-1,1c-0.4,0.2-0.8,0.4-1.3,0.5s-1,0.2-1.5,0.2c-1.3,0-2.3-0.3-3.1-0.9c-0.8-0.6-1.2-1.5-1.2-2.7
	h1.3c0,0.8,0.3,1.5,0.9,1.9s1.3,0.6,2.2,0.6c0.7,0,1.4-0.1,1.9-0.4c0.5-0.3,0.8-0.8,0.8-1.5c0-0.4-0.1-0.7-0.4-1
	c-0.2-0.3-0.6-0.4-1-0.6c-0.4-0.1-0.8-0.2-1.3-0.3s-1-0.2-1.4-0.3c-0.5-0.1-0.9-0.3-1.3-0.5s-0.7-0.5-1-0.8
	c-0.2-0.4-0.4-0.8-0.4-1.3c0-1,0.4-1.8,1.1-2.3S4,230,5.1,230s2.1,0.3,2.8,0.8c0.7,0.6,1.1,1.4,1.1,2.5L7.7,233.3L7.7,233.3z"/>
<path class="st1" d="M10.9,233.2h1.2v1.1l0,0c0.6-0.9,1.4-1.3,2.5-1.3s1.8,0.4,2.1,1.3c0.5-0.9,1.3-1.3,2.4-1.3
	c1.7,0,2.5,0.7,2.5,2.2v5.6h-1.2v-5c0-0.5-0.1-1-0.3-1.2c-0.2-0.3-0.6-0.4-1.2-0.4s-1.1,0.2-1.5,0.5c-0.4,0.4-0.5,0.8-0.5,1.4v4.7
	h-1.2v-5c0-0.5-0.1-1-0.3-1.2c-0.2-0.3-0.6-0.4-1.1-0.4c-0.6,0-1.1,0.2-1.5,0.7c-0.4,0.4-0.5,0.9-0.5,1.3v4.7h-1.4V233.2z"/>
<path class="st1" d="M30.2,240.7c-0.2,0.1-0.5,0.2-0.9,0.2c-0.7,0-1.1-0.4-1.1-1.2c-0.6,0.8-1.5,1.2-2.7,1.2c-0.7,0-1.3-0.2-1.8-0.5
	s-0.7-0.9-0.7-1.6c0-0.4,0.1-0.8,0.2-1c0.1-0.3,0.3-0.5,0.6-0.7c0.3-0.2,0.5-0.3,0.8-0.4c0.3-0.1,0.6-0.2,1-0.2
	c0.2,0,0.4-0.1,0.7-0.1c0.3,0,0.5-0.1,0.6-0.1c0.2,0,0.3-0.1,0.5-0.1s0.3-0.1,0.4-0.2c0.1-0.1,0.2-0.1,0.3-0.3
	c0.1-0.1,0.1-0.2,0.1-0.4c0-0.8-0.6-1.3-1.7-1.3c-1.2,0-1.8,0.5-1.9,1.4h-1.2c0-0.9,0.4-1.5,0.9-1.9c0.6-0.4,1.3-0.6,2.3-0.6
	c1.9,0,2.8,0.7,2.8,2.1v3.9c0,0.3,0,0.6,0.1,0.7c0,0.1,0.2,0.2,0.3,0.2c0.1,0,0.2,0,0.4-0.1C30.2,239.7,30.2,240.7,30.2,240.7z
	 M28.1,236.8c-0.2,0.1-0.5,0.3-1,0.3c-0.5,0.1-0.9,0.1-1.3,0.2c-0.4,0-0.8,0.2-1.1,0.4c-0.3,0.2-0.5,0.6-0.5,1s0.1,0.7,0.4,0.8
	c0.3,0.2,0.6,0.3,1.1,0.3c0.8,0,1.3-0.2,1.7-0.5c0.4-0.4,0.6-0.8,0.6-1.2C28.1,238.1,28.1,236.8,28.1,236.8z"/>
<path class="st1" d="M31.3,233.2h1.2v1.6l0,0c0.3-0.6,0.7-1.1,1.1-1.4c0.4-0.3,1-0.4,1.7-0.4v1.3c-1,0-1.7,0.3-2.1,0.8
	s-0.6,1.3-0.6,2.3v3.4h-1.2C31.3,240.7,31.3,233.2,31.3,233.2z"/>
<path class="st1" d="M38.7,233.2h1.5v1.1h-1.5v4.7c0,0.3,0.1,0.5,0.2,0.6c0.1,0.1,0.4,0.1,0.8,0.1h0.6v1.1h-1
	c-0.7,0-1.1-0.1-1.4-0.3c-0.3-0.2-0.4-0.7-0.4-1.3v-4.8h-1.3v-1.1h1.3V231h1.2C38.7,231,38.7,233.2,38.7,233.2z"/>
<polygon class="st1" points="45.9,230.3 47.3,230.3 47.3,235.5 52.6,230.3 54.4,230.3 50,234.5 54.6,240.7 52.8,240.7 49,235.4 
	47.3,237.1 47.3,240.7 45.9,240.7 "/>
<path class="st1" d="M56.8,231.8h-1.2v-1.5h1.2V231.8z M55.6,233.2h1.2v7.6h-1.2V233.2z"/>
<path class="st1" d="M60.5,233.2H62v1.1h-1.5v4.7c0,0.3,0.1,0.5,0.2,0.6c0.1,0.1,0.4,0.1,0.8,0.1H62v1.1h-1c-0.7,0-1.1-0.1-1.4-0.3
	c-0.3-0.2-0.4-0.7-0.4-1.3v-4.8h-1.3v-1.1h1.3V231h1.2v2.2H60.5z"/>
<path class="st1" d="M68.5,235.6c-0.2-1-0.8-1.5-1.9-1.5c-0.8,0-1.4,0.3-1.8,0.8c-0.4,0.6-0.6,1.3-0.6,2.1s0.2,1.4,0.6,2
	c0.4,0.5,0.9,0.8,1.7,0.8c1.2,0,1.9-0.6,2.1-1.9h1.3c-0.1,1-0.5,1.7-1.1,2.2s-1.3,0.8-2.3,0.8c-1.1,0-2-0.3-2.6-1s-0.9-1.6-0.9-2.8
	s0.3-2.2,0.9-2.9c0.6-0.8,1.5-1.1,2.7-1.1c0.9,0,1.6,0.2,2.2,0.7c0.6,0.4,0.9,1.1,1,2L68.5,235.6L68.5,235.6z"/>
<path class="st1" d="M71.3,230.3h1.2v4l0,0c0.2-0.4,0.5-0.8,0.9-1c0.5-0.2,0.9-0.3,1.4-0.3c0.9,0,1.6,0.2,2,0.7s0.6,1.2,0.6,2v5
	h-1.2v-5.1c0-0.5-0.1-0.8-0.4-1.1s-0.7-0.4-1.1-0.4c-0.7,0-1.3,0.2-1.7,0.7c-0.4,0.4-0.6,1-0.6,1.7v4.3h-1.2
	C71.3,240.7,71.3,230.3,71.3,230.3z"/>
<path class="st1" d="M85.9,238.3c-0.2,0.8-0.5,1.5-1.1,1.9s-1.3,0.7-2.2,0.7c-1.2,0-2.1-0.4-2.7-1.1c-0.6-0.7-0.9-1.7-1-2.9
	c0-1.1,0.3-2.1,1-2.8s1.5-1.1,2.6-1.1c0.5,0,1,0.1,1.4,0.3s0.7,0.4,1,0.7s0.5,0.6,0.6,1c0.2,0.4,0.3,0.8,0.3,1.2
	c0.1,0.4,0.1,0.8,0.1,1.2h-5.7c0,0.7,0.2,1.3,0.6,1.8s1,0.7,1.8,0.7c1.1,0,1.8-0.5,2-1.5L85.9,238.3L85.9,238.3z M84.7,236.2
	c0-0.6-0.3-1.1-0.7-1.5c-0.4-0.4-0.9-0.6-1.5-0.6s-1.1,0.2-1.5,0.6c-0.4,0.4-0.6,0.9-0.6,1.5H84.7z"/>
<path class="st1" d="M87.3,233.2h1.2v1.2l0,0c0.5-0.9,1.3-1.4,2.5-1.4c0.9,0,1.6,0.2,2,0.7s0.6,1.2,0.6,2v5h-1.2v-5.1
	c0-0.5-0.1-0.8-0.4-1.1s-0.7-0.4-1.1-0.4c-0.7,0-1.3,0.2-1.7,0.7c-0.4,0.4-0.6,1-0.6,1.7v4.3h-1.3V233.2L87.3,233.2z"/>
<rect x="98.6" y="236.1" class="st1" width="4.2" height="1.2"/>
<path class="st1" d="M114.1,233.3c-0.2-1.4-1-2.1-2.6-2.1c-0.7,0-1.2,0.1-1.7,0.4c-0.4,0.3-0.7,0.7-0.7,1.4c0,0.4,0.1,0.6,0.4,0.9
	c0.2,0.2,0.6,0.4,1,0.5s0.8,0.2,1.3,0.3s0.9,0.2,1.4,0.3s0.9,0.3,1.3,0.5s0.7,0.5,1,0.9c0.2,0.4,0.4,0.9,0.4,1.4s-0.1,1-0.4,1.4
	c-0.2,0.4-0.6,0.7-1,1c-0.4,0.2-0.8,0.4-1.3,0.5s-1,0.2-1.5,0.2c-1.3,0-2.3-0.3-3.1-0.9c-0.8-0.6-1.2-1.5-1.2-2.7h1.3
	c0,0.8,0.3,1.5,0.9,1.9s1.3,0.6,2.2,0.6c0.7,0,1.4-0.1,1.9-0.4c0.5-0.3,0.8-0.8,0.8-1.5c0-0.4-0.1-0.7-0.4-1c-0.2-0.3-0.6-0.4-1-0.6
	c-0.4-0.1-0.8-0.2-1.3-0.3s-0.9-0.2-1.4-0.3s-0.9-0.3-1.3-0.5s-0.7-0.5-1-0.8c-0.2-0.4-0.4-0.8-0.4-1.3c0-1,0.4-1.8,1.1-2.3
	s1.6-0.8,2.7-0.8s2.1,0.3,2.8,0.8c0.7,0.6,1.1,1.4,1.1,2.5L114.1,233.3L114.1,233.3z"/>
<path class="st1" d="M117.4,233.2h1.2v1.1l0,0c0.6-0.9,1.4-1.3,2.5-1.3s1.8,0.4,2.1,1.3c0.5-0.9,1.3-1.3,2.4-1.3
	c1.7,0,2.5,0.7,2.5,2.2v5.6h-1.2v-5c0-0.5-0.1-1-0.3-1.2c-0.2-0.3-0.6-0.4-1.2-0.4s-1.1,0.2-1.5,0.5c-0.4,0.4-0.5,0.8-0.5,1.4v4.7
	h-1.2v-5c0-0.5-0.1-1-0.3-1.2c-0.2-0.3-0.6-0.4-1.1-0.4c-0.6,0-1.1,0.2-1.5,0.7c-0.4,0.4-0.5,0.9-0.5,1.3v4.7h-1.3L117.4,233.2
	L117.4,233.2z"/>
<path class="st1" d="M136.6,240.7c-0.2,0.1-0.5,0.2-0.9,0.2c-0.7,0-1.1-0.4-1.1-1.2c-0.6,0.8-1.5,1.2-2.7,1.2
	c-0.7,0-1.3-0.2-1.8-0.5s-0.7-0.9-0.7-1.6c0-0.4,0.1-0.8,0.2-1c0.1-0.3,0.3-0.5,0.6-0.7s0.5-0.3,0.8-0.4c0.3-0.1,0.6-0.2,1-0.2
	c0.2,0,0.4-0.1,0.7-0.1s0.5-0.1,0.6-0.1c0.2,0,0.3-0.1,0.5-0.1s0.3-0.1,0.4-0.2c0.1-0.1,0.2-0.1,0.2-0.3c0.1-0.1,0.1-0.2,0.1-0.4
	c0-0.8-0.6-1.3-1.7-1.3c-1.2,0-1.8,0.5-1.9,1.4h-1.2c0-0.9,0.4-1.5,0.9-1.9c0.6-0.4,1.3-0.6,2.3-0.6c1.9,0,2.9,0.7,2.9,2.1v3.9
	c0,0.3,0,0.6,0.1,0.7c0,0.1,0.2,0.2,0.3,0.2s0.2,0,0.4-0.1L136.6,240.7L136.6,240.7z M134.6,236.8c-0.2,0.1-0.5,0.3-1,0.3
	c-0.5,0.1-0.9,0.1-1.3,0.2c-0.4,0-0.7,0.2-1.1,0.4c-0.3,0.2-0.5,0.6-0.5,1s0.1,0.7,0.4,0.8c0.3,0.2,0.6,0.3,1.1,0.3
	c0.8,0,1.3-0.2,1.7-0.5c0.4-0.4,0.6-0.8,0.6-1.2L134.6,236.8L134.6,236.8z"/>
<path class="st1" d="M137.7,233.2h1.2v1.6l0,0c0.3-0.6,0.7-1.1,1.1-1.4c0.4-0.3,1-0.4,1.7-0.4v1.3c-1,0-1.7,0.3-2.1,0.8
	c-0.4,0.5-0.6,1.3-0.6,2.3v3.4h-1.2L137.7,233.2L137.7,233.2z"/>
<path class="st1" d="M145.2,233.2h1.5v1.1h-1.5v4.7c0,0.3,0.1,0.5,0.2,0.6c0.1,0.1,0.4,0.1,0.8,0.1h0.6v1.1h-1
	c-0.7,0-1.1-0.1-1.4-0.3c-0.3-0.2-0.4-0.7-0.4-1.3v-4.8h-1.3v-1.1h1.3V231h1.3L145.2,233.2L145.2,233.2z"/>
<polygon class="st1" points="152.3,230.3 153.7,230.3 153.7,239.6 159.3,239.6 159.3,240.7 152.3,240.7 "/>
<path class="st1" d="M161.6,231.8h-1.2v-1.5h1.2V231.8z M160.4,233.2h1.2v7.6h-1.2V233.2z"/>
<path class="st1" d="M164.1,234.3h-1.3v-1.1h1.3V232c0-0.6,0.2-1.1,0.5-1.4c0.4-0.3,0.9-0.5,1.6-0.5c0.3,0,0.6,0,0.8,0.1v1.1
	c-0.2-0.1-0.4-0.1-0.7-0.1s-0.6,0.1-0.7,0.2c-0.2,0.1-0.2,0.3-0.2,0.7v1.1h1.5v1.1h-1.5v6.5h-1.2L164.1,234.3L164.1,234.3z"/>
<path class="st1" d="M174.4,238.3c-0.2,0.8-0.5,1.5-1.1,1.9s-1.3,0.7-2.2,0.7c-1.2,0-2.1-0.4-2.7-1.1c-0.6-0.7-0.9-1.7-1-2.9
	c0-1.1,0.3-2.1,1-2.8s1.5-1.1,2.6-1.1c0.5,0,1,0.1,1.4,0.3s0.7,0.4,1,0.7s0.5,0.6,0.6,1s0.3,0.8,0.3,1.2c0.1,0.4,0.1,0.8,0.1,1.2
	h-5.7c0,0.7,0.2,1.3,0.6,1.8c0.4,0.5,1,0.7,1.8,0.7c1.1,0,1.8-0.5,2-1.5L174.4,238.3L174.4,238.3z M173.2,236.2
	c0-0.6-0.3-1.1-0.7-1.5s-0.9-0.6-1.5-0.6s-1.1,0.2-1.5,0.6c-0.4,0.4-0.6,0.9-0.6,1.5H173.2z"/>
</svg>
