<svg version="1.1" id="Layer_1" xmlns="http://www.w3.org/2000/svg" x="0" y="0" width="234" height="60" viewBox="0 0 234 60" xml:space="preserve"><style>.st0{fill:#60676d}</style><path class="st0" d="M82.5 30.8v.8h-9.7v-.8c.9 0 1.6-.1 1.9-.3.3-.2.5-.4.5-.9 0-.4-.2-1-.5-2-.2-.3-.4-1.1-.8-2.1h-6.8c-.4 1-.7 1.8-.9 2.6-.3.7-.3 1.2-.3 1.3 0 .4.2.8.5.9.3.3 1 .3 1.9.3v.8h-6v-.8c.8-.1 1.3-.4 1.8-1 .3-.3.7-1.2 1.2-2.5L72 10.7h.8l6.7 15.7c.8 1.7 1.3 2.8 1.6 3.3.3.8.9 1 1.4 1.1zm-15-6.4h5.9l-3-7.3-2.9 7.3zm16.7 7.2v-.8c1-.1 1.7-.3 2-.5.4-.3.7-1 .7-1.8V14.2c-.5-.7-1-1.2-1.4-1.6-.4-.4-.8-.6-1.1-.6v-.8h6.3L101.1 24l.1-9c0-1-.2-1.8-.5-2.2-.4-.6-1.2-.8-2.3-.8v-.7h6.4v.8c-1 .2-1.7.3-1.9.7s-.4.9-.4 1.7v17.7h-.8L88.3 15.9l-.1 12c0 1.1.2 1.8.6 2.2.4.4 1.2.7 2.3.8v.8c-.1-.1-6.9-.1-6.9-.1zm48.3-4.7l.9.8c-1.3 1.4-2.4 2.5-3.6 3.2-1.4.8-3 1.3-4.8 1.3-3.3 0-6-1.1-7.9-3.2-1.8-1.9-2.8-4.4-2.8-7.4 0-3.1 1-5.6 2.9-7.7 2-2.1 4.5-3.1 7.6-3.1.9 0 1.8.2 2.8.4 1 .3 2 .7 2.9 1 .4 0 .7-.2.9-.4.1-.2.3-.4.5-.9h.8V18h-.7c-.6-1.6-1.4-2.9-2.6-4-1.3-1.3-2.8-2.1-4.3-2.1-2 0-3.5 1-4.4 2.9-.8 1.6-1.2 3.8-1.2 6.7 0 1.3.1 2.3.3 3.3.3 1.3.6 2.4 1.1 3.3.4.7 1 1.3 1.8 1.8.9.6 1.8.8 2.8.8 1.3 0 2.4-.3 3.5-.8 1-.6 2.2-1.6 3.5-3zm21.1-15.3c.1 0 .2-.1.3-.1s.2-.1.3-.3l.4-.4c-.4-.2-.8-.5-1.1-.8-.3-.4-.4-.8-.4-1.3 0-.7.3-1.2.7-1.7.4-.4 1-.7 1.6-.7s1.1.3 1.6.7c.4.4.7 1 .7 1.7 0 .2-.1.4-.2.8-.1.3-.3.6-.3.8-.2.3-.3.4-.5.7-.3.3-.6.5-.9.7-.4.3-.8.4-1.1.7s-.8.4-1.1.5v11.3c0 1.1-.1 2.1-.3 3-.3 1.2-.8 2.1-1.3 2.8-.7.8-1.6 1.3-2.8 1.7-1 .3-2 .5-3.1.5-1 0-1.9-.1-2.8-.3-1.3-.3-2.4-.8-3.3-1.6-.8-.7-1.3-1.3-1.5-1.9-.4-.8-.6-2-.6-3.5V15c0-1.2-.2-1.8-.6-2.3-.3-.3-.9-.4-1.8-.5v-.8h10.1v.8c-1.1 0-1.8.2-2.2.4-.4.3-.7 1.1-.7 2.3v10c0 2.1.3 3.5 1.1 4.4.7.9 1.8 1.4 3.3 1.4 2.3 0 3.8-.8 4.7-2.5.4-.9.7-2.3.7-3.9v-9.1c0-1.1-.2-1.8-.5-2.2-.4-.5-1.3-.8-2.4-.8v-.8h4.3l-.3.2zm19.4 1.2c.3-.1.5-.2.7-.2.4-.2.7-.3.8-.3l.4-.4c-.4-.2-.8-.5-1.1-.8-.3-.4-.4-.8-.4-1.3 0-.7.3-1.2.7-1.7.4-.4 1-.7 1.6-.7s1.1.3 1.6.7c.4.4.7 1 .7 1.7 0 .2-.1.4-.2.8-.1.3-.3.6-.3.8-.2.3-.3.4-.5.7-.3.3-.5.4-.8.7-.3.2-.6.3-.9.5-.2.1-.6.3-1.4.6.9.9 1.7 2.1 2.3 3.4.6 1.3.8 2.8.8 4.4 0 3.1-.9 5.7-2.8 7.7s-4.2 3-7 3-5.2-1-7-3-2.8-4.5-2.8-7.7.9-5.8 2.8-7.8c1.8-1.9 4.1-2.8 6.9-2.8 1.1 0 2.1.2 3.1.5 1 0 2 .5 2.8 1.2zm-5.9-.9c-1.8 0-3 1.1-3.9 3.2-.7 1.7-1 3.8-1 6.4 0 3.3.4 5.6 1.3 7.2s2.1 2.4 3.7 2.4 2.8-.8 3.6-2.4 1.3-4 1.3-7.2c0-2.7-.3-4.8-.9-6.4-1-2.1-2.3-3.2-4.1-3.2z"/><path class="st0" d="M169.7 9.5H168l-4.3-2.6c-.4-.3-.7-.5-.9-.8s-.3-.5-.3-.8c0-.4.2-.8.4-.9.3-.3.7-.3 1.1-.3.3 0 .6.1.8.3.2.1.4.3.7.6l4.2 4.5zm10 22.1v-.8c1-.1 1.7-.3 2-.5.4-.3.7-1 .7-1.8V14.2c-.5-.7-1-1.2-1.4-1.6-.4-.4-.8-.6-1.1-.6v-.8h6.3L196.6 24l.1-9c0-1-.2-1.8-.5-2.2-.4-.6-1.2-.8-2.3-.8v-.7h6.4v.8c-1 .2-1.7.3-1.9.7-.3.3-.4.9-.4 1.7v17.7h-.8L183.8 16l-.1 12c0 1.1.2 1.8.6 2.2s1.2.7 2.3.8v.8c-.1-.2-6.9-.2-6.9-.2zm43.6-8.7v.8c-1 .1-1.7.3-2 .5-.4.3-.6 1.1-.6 2.3v3.8c-.8.5-1.9.9-3.5 1.3-1.7.4-3.2.6-4.5.6-3.5 0-6.3-1.1-8.2-3.3-1.8-1.9-2.6-4.4-2.6-7.2 0-3 .9-5.5 2.8-7.6 2-2.1 4.6-3.2 7.7-3.2.9 0 1.8.2 2.8.4 1 .3 2 .7 2.9 1 .4 0 .7-.2.9-.4.1-.2.3-.4.5-.9h.8v7h-.8c-.6-1.6-1.4-2.9-2.6-4-1.3-1.3-2.8-2.1-4.3-2.1-2 0-3.5 1-4.4 2.9-.8 1.6-1.2 3.8-1.2 6.8 0 3.1.5 5.4 1.5 7.1s2.4 2.5 4.3 2.5c1.3 0 2.1-.2 2.5-.6.4-.3.6-.8.6-1.6v-3.1c0-.9-.3-1.5-.7-1.8s-1.3-.3-2.4-.3V23h10.4v-.1h.1zM64.8 51.1l-2.7-10h1.3l1.5 6.6c.2.7.3 1.3.4 2.1.3-1.1.4-1.7.4-1.8l1.9-6.8h1.6l1.4 5.1c.3 1.3.6 2.4.8 3.6.2-.7.3-1.3.5-2.2l1.6-6.4H75l-2.8 10H71l-2.1-7.7c-.2-.7-.3-1-.3-1.2-.1.5-.2.8-.3 1.2l-2.2 7.7h-1.3v-.2zm10.6-3.6c0-1.3.3-2.3 1.1-3 .7-.5 1.4-.8 2.3-.8 1 0 1.8.3 2.4 1 .7.7.9 1.6.9 2.8 0 .9-.2 1.7-.4 2.2-.3.5-.7.9-1.3 1.3-.5.3-1.1.4-1.8.4-1 0-1.8-.3-2.5-1-.4-.8-.7-1.8-.7-2.9zm1.2 0c0 .9.2 1.7.6 2.1.4.5.9.7 1.5.7s1.1-.3 1.5-.7c.4-.5.6-1.2.6-2.1s-.2-1.6-.6-2c-.4-.5-.9-.7-1.5-.7s-1.2.3-1.5.7c-.4.3-.6 1-.6 2zm6.6 0c0-1.3.3-2.3 1.1-3 .7-.5 1.4-.8 2.3-.8 1 0 1.8.3 2.4 1 .7.7.9 1.6.9 2.8 0 .9-.2 1.7-.4 2.2-.3.5-.7.9-1.3 1.3-.5.3-1.1.4-1.8.4-1 0-1.8-.3-2.5-1-.4-.8-.7-1.8-.7-2.9zm1.2 0c0 .9.2 1.7.6 2.1.4.5.9.7 1.5.7s1.1-.3 1.5-.7c.4-.5.6-1.2.6-2.1s-.2-1.6-.6-2c-.4-.5-.9-.7-1.5-.7s-1.2.2-1.5.6c-.3.4-.6 1.1-.6 2.1zm11.8 3.6v-.9c-.5.8-1.2 1.1-2 1.1-.6 0-1.1-.2-1.6-.5s-.8-.8-1.2-1.3c-.3-.6-.4-1.3-.4-2 0-.8.1-1.4.3-2 .3-.6.6-1.1 1.1-1.3.5-.3 1-.5 1.6-.5.4 0 .8.1 1.2.3.3.2.6.4.8.8v-3.6h1.3v10l-1.1-.1zm-3.9-3.6c0 .9.2 1.6.6 2.1s.8.7 1.4.7c.5 0 1-.3 1.3-.7.4-.4.6-1.1.6-2 0-1-.2-1.8-.6-2.2-.4-.5-.8-.7-1.4-.7s-1 .3-1.3.7c-.5.4-.6 1.1-.6 2.1zm10.4.5v-1.3h3.8V48h-3.8zm11 3.1L111 41h1.3l1.5 6.6c.2.7.3 1.3.4 2.1.3-1.1.4-1.7.4-1.8l1.9-6.8h1.6l1.4 5.1c.3 1.3.6 2.4.8 3.6.2-.7.3-1.3.5-2.2l1.6-6.4h1.3l-2.8 10h-1.3l-2.1-7.7c-.2-.7-.3-1-.3-1.2-.1.5-.2.8-.3 1.2l-2.2 7.7h-1.2v-.1h.2zm10.6-3.6c0-1.3.3-2.3 1.1-3 .7-.5 1.4-.8 2.3-.8 1 0 1.8.3 2.4 1 .7.7.9 1.6.9 2.8 0 .9-.2 1.7-.4 2.2-.3.5-.7.9-1.3 1.3-.5.3-1.1.4-1.8.4-1 0-1.8-.3-2.5-1-.4-.8-.7-1.8-.7-2.9zm1.2 0c0 .9.2 1.7.6 2.1.4.5.9.7 1.5.7s1.1-.3 1.5-.7c.4-.5.6-1.2.6-2.1s-.2-1.6-.6-2c-.4-.5-.9-.7-1.5-.7s-1.2.3-1.5.7c-.3.3-.6 1-.6 2zm7 3.6v-7.3h1.1v1.1c.3-.5.6-.8.8-1 .3-.2.5-.3.8-.3.4 0 .8.2 1.3.4l-.4 1.2c-.3-.2-.6-.3-.9-.3-.3 0-.5.1-.8.3s-.3.4-.5.7c-.2.4-.2.9-.2 1.4v3.8h-1.2zm4.7 0V41h1.3v5.8l2.9-2.9h1.6l-2.8 2.6 3.1 4.6h-1.5l-2.4-3.8-.8.8V51h-1.4v.1zm7-8.7V41h1.3v1.4h-1.3zm0 8.7v-7.3h1.3v7.3h-1.3zm3.2 0v-7.3h1.1v1c.5-.8 1.3-1.2 2.3-1.2.4 0 .8.1 1.3.3.3.2.7.3.8.6.2.3.3.6.4.9.1.3.1.7.1 1.2v4.5h-1.3v-4.4c0-.5-.1-.9-.2-1.1-.1-.3-.3-.4-.5-.6-.3-.2-.5-.3-.8-.3-.5 0-1 .2-1.3.5-.4.3-.6 1-.6 1.9v4h-1.3zm7.5.5l1.2.2c.1.3.2.7.4.8.3.3.8.3 1.3.3.6 0 1-.1 1.3-.3.3-.3.5-.6.7-.9.1-.3.1-.8.1-1.6-.5.7-1.3.9-2 .9-1 0-1.8-.3-2.3-1.1s-.8-1.6-.8-2.6c0-.7.2-1.3.4-1.9.3-.6.6-1 1.1-1.3s1-.5 1.7-.5c.8 0 1.6.3 2.1 1v-.8h1.2V50c0 1.2-.1 1.9-.3 2.4-.3.5-.6.8-1.1 1.1s-1.1.4-1.8.4c-.8 0-1.6-.2-2.1-.6-.8-.2-1.1-.8-1.1-1.7zm1.1-4.3c0 .9.2 1.7.6 2.1.4.4.8.7 1.4.7.6 0 1-.3 1.4-.7s.6-1.1.6-2.1c0-.9-.2-1.6-.6-2-.4-.4-.8-.7-1.4-.7-.6 0-1 .3-1.4.7-.4.5-.6 1.2-.6 2zm11.1 3.8V41h2l2.4 7.1c.3.7.4 1.2.5 1.5.1-.3.3-.9.5-1.6l2.4-7h1.8v10h-1.3v-8.4l-2.9 8.5h-1.2l-2.9-8.5v8.5h-1.3zm16.3-1c-.4.4-.9.7-1.3.8s-.9.3-1.3.3c-.8 0-1.4-.2-1.8-.6-.4-.4-.7-.9-.7-1.5 0-.3.1-.7.3-1s.3-.5.7-.7c.3-.2.6-.3.9-.4.3-.1.6-.2 1.1-.2 1-.1 1.8-.3 2.2-.4v-.3c0-.5-.1-.8-.3-1.1-.3-.3-.8-.4-1.4-.4-.6 0-1 .1-1.3.3s-.5.6-.6 1.1l-1.2-.2c.1-.5.3-.9.5-1.3.3-.3.6-.6 1.1-.8s1-.3 1.7-.3c.6 0 1.2.1 1.5.3.4.2.7.3.8.6.2.3.3.5.4.8 0 .3.1.6.1 1.2V48c0 1.2 0 1.8.1 2.2.1.3.2.6.3.8h-1.3c-.4-.2-.5-.5-.5-.9zm-.1-2.7c-.4.2-1.1.3-2 .5-.5.1-.8.2-1.1.3s-.3.3-.5.4c-.1.2-.2.3-.2.6s.1.6.3.8c.3.3.6.3 1.1.3s.9-.1 1.3-.3c.3-.2.7-.5.8-.8.2-.3.2-.7.2-1.3l.1-.5zm5.8 2.6l.2 1.1c-.3.1-.7.1-.9.1-.4 0-.8-.1-1-.3-.3-.2-.4-.3-.5-.6s-.2-.8-.2-1.4v-4.2h-.9v-.9h.9V42l1.3-.8v2.5h1.3v1.1H188V49c0 .3 0 .6.1.7.1.1.1.2.3.3.1.1.3.1.4.1-.1-.1.1-.1.3-.1zm6.2-1.3l1.3.2c-.2.8-.6 1.3-1.1 1.8-.6.4-1.3.6-2.1.6-1.1 0-1.9-.3-2.5-1s-.9-1.6-.9-2.8c0-1.3.3-2.2.9-2.8.7-.7 1.4-1 2.4-1s1.8.3 2.4 1c.6.7.9 1.6.9 2.8v.3h-5.4c.1.8.3 1.4.7 1.8.4.4.9.7 1.5.7.4 0 .8-.1 1.2-.3s.5-.8.7-1.3zm-4-2h4.1c-.1-.6-.3-1.1-.5-1.3-.4-.5-.9-.8-1.5-.8s-1 .2-1.4.6c-.5.4-.7.9-.7 1.5zm6.9 4.4v-7.3h1.1v1.1c.3-.5.6-.8.8-1 .3-.2.5-.3.8-.3.4 0 .8.2 1.3.4l-.4 1.2c-.3-.2-.6-.3-.9-.3-.3 0-.5.1-.8.3s-.3.4-.5.7c-.2.4-.2.9-.2 1.4v3.8h-1.2zm4.6-8.7V41h1.3v1.4h-1.3zm0 8.7v-7.3h1.3v7.3h-1.3zm7.9-1c-.4.4-.9.7-1.3.8s-.9.3-1.3.3c-.8 0-1.4-.2-1.8-.6-.4-.4-.7-.9-.7-1.5 0-.3.1-.7.3-1s.3-.5.7-.7c.3-.2.6-.3.9-.4.3-.1.6-.2 1.1-.2 1-.1 1.8-.3 2.2-.4v-.3c0-.5-.1-.8-.3-1.1-.3-.3-.8-.4-1.4-.4-.6 0-1 .1-1.3.3s-.5.6-.6 1.1l-1.2-.2c.1-.5.3-.9.5-1.3.3-.3.6-.6 1.1-.8s1-.3 1.7-.3c.6 0 1.2.1 1.5.3.4.2.7.3.8.6.2.3.3.5.4.8 0 .3.1.6.1 1.2V48c0 1.2 0 1.8.1 2.2.1.3.2.6.3.8h-1.3c-.3-.2-.4-.5-.5-.9zm-.1-2.7c-.4.2-1.1.3-2 .5-.5.1-.8.2-1.1.3s-.3.3-.5.4c-.1.2-.2.3-.2.6s.1.6.3.8c.3.3.6.3 1.1.3s.9-.1 1.3-.3c.3-.2.7-.5.8-.8.2-.3.2-.7.2-1.3l.1-.5zm3.1 3.7V41h1.3v10l-1.3.1zm2.7-2.2l1.3-.2c.1.5.3.8.6 1.1s.8.4 1.3.4c.6 0 1-.1 1.3-.3.3-.3.4-.5.4-.8s-.1-.5-.3-.7c-.2-.1-.6-.3-1.3-.4-.9-.3-1.5-.4-1.9-.6-.3-.2-.6-.4-.8-.7s-.3-.6-.3-1c0-.3.1-.6.3-.9.2-.3.3-.5.6-.7.2-.2.4-.3.8-.3s.7-.2 1.1-.2c.6 0 1.1.1 1.5.3s.8.4.9.7c.2.3.3.7.4 1.1l-1.2.2c-.1-.3-.3-.7-.5-.8-.3-.3-.7-.3-1.1-.3-.6 0-1 .1-1.3.3s-.3.4-.3.7c0 .2.1.3.2.4.1.2.3.3.5.3.1.1.5.2 1.1.3.8.3 1.5.4 1.8.6.3.2.6.3.8.7.2.3.3.7.3 1.1 0 .4-.1.8-.3 1.2s-.6.7-1 .8-1 .3-1.5.3c-.9 0-1.7-.2-2.2-.6-.7-.7-1.1-1.3-1.2-2zm8.7-39.2V3.5h2.8c.6 0 1 .1 1.3.2.3.1.5.3.7.6s.3.6.3.9c0 .4-.2.8-.4 1.1-.3.3-.8.5-1.3.6.3.1.4.2.5.3.3.3.5.5.7.8l1.1 1.7h-1l-.8-1.3c-.3-.3-.4-.7-.6-.8l-.4-.4c-.1-.1-.3-.2-.3-.2h-1.3v2.8l-1.3-.1zm.8-3.4h1.8c.3 0 .7 0 .9-.1.3-.1.3-.2.5-.3.1-.2.2-.3.2-.6s-.1-.5-.3-.8c-.3-.2-.6-.3-1-.3h-2l-.1 2.1z"/><path class="st0" d="M227.5 12.2c-3 0-5.5-2.5-5.5-5.6s2.4-5.6 5.5-5.6c3 0 5.5 2.5 5.5 5.6s-2.4 5.6-5.5 5.6zm0-10.4c-2.6 0-4.6 2.1-4.6 4.8 0 2.6 2.1 4.7 4.6 4.7 2.6 0 4.6-2.1 4.6-4.7.1-2.6-2-4.8-4.6-4.8zM0 3h55v55H0V3z"/><path d="M20.4 14.2c-.1.1-.2.2-.2.3v.1l9.6 5.4c-2.8-.6-5.8-1.6-8.5-.8v.2s.8.6 1 .8c1.2 1.2.7 2.9-1 3.2-1 .2-1.6-.3-1.9-.7-.1-.2-.2-.3-.1-.4-3.2 6.8 9 1.9 11.8 2.5-6.6 3.4-4.1 10.2-9.3 14.3 6.3-.5 4.6-6.4 8.1-9.6 1.6-1.4 3.3.2 5.1-1.2 2.7-2.1 1-7.5 1.1-10.4 0-1.4-.2-3.6.9-4.7 1.8-1.8 3.1-.6 3.2 1.5.2 3.7-3.1 6.8-2 10.8 2.1-2.3 5.2-2.5 6.8-5.3-.4 4.2-5.6 5.8-6.9 9.7 3.4-3.6 7.9-4.9 11.1-8.7-1.2 3.4-3.2 4.9-6.4 7.3-1.6 1.2-2 2.3-2.1 2.7-.2.4-.1.6-.1.6.1.1.3-.1.4-.2 2.3-2.6 6.3-4.6 9.7-4.6-3.4 1-6.4 3.7-8.3 6.7 1.4-1.3 3.6-3.4 5.7-3.4 2.3.1 3.8 1.8 2.8 3.9-2.5 5.3-10.3 1.7-12.8-1.4 1.5 3.9 5.4 6.5 9.2 7.9-3.2 0-6.4-1.1-9-2.9H38c.5 2.8 2.8 5.4 5 7.3.2.1.3.2.4.3-4-.7-6.8-1.5-7.9-5.6-.9-3.3-.5-9-5.1-9.5 2.8 3.5.9 7.1 1.4 11.2.4 3.7 2.4 6.2 5.1 8.5 4.8-2.1 9.3-5.2 12.3-9.5C61.5 22.7 36.5.9 20.4 14.2z" fill="#0b82c2"/><path d="M31.8 41.4c-.4-4 1.4-7.6-1.4-11.2 4.6.6 4.1 6.2 5.1 9.5 1.2 4.1 4 4.9 7.9 5.6-.2-.1-.3-.2-.4-.3-2.3-1.8-4.4-4.5-5-7.3l.4-.1c2.6 1.8 5.8 2.9 9 2.9-3.8-1.3-7.8-4-9.2-7.8 2.5 3 10.3 6.7 12.8 1.4 1-2.1-.5-3.8-2.8-3.9-2-.1-4.3 2-5.7 3.4 1.9-3 4.9-5.6 8.3-6.7-3.5.1-7.4 2-9.7 4.6-.1.1-.3.3-.4.2-.1 0-.1-.3.1-.6.2-.4.5-1.5 2.1-2.7 3.2-2.4 5.3-3.9 6.4-7.3-3.2 3.7-7.8 5.1-11.1 8.7 1.4-4 6.5-5.5 6.8-9.7-1.6 2.9-4.7 3-6.8 5.3-1.1-4 2.3-7.1 2-10.8-.1-2.1-1.4-3.2-3.2-1.5-1.2 1.3-1 3.5-1 4.9 0 2.9 1.6 8.2-1.1 10.4-1.8 1.4-3.5-.2-5.1 1.2-3.5 3.1-1.7 9-8 9.5 5.2-4.2 2.8-10.9 9.2-14.4-2.8-.6-15 4.2-11.8-2.5-.1.1 0 .3.1.4.3.4.9.9 1.9.7 1.6-.4 2.2-2 1-3.2-.3-.2-1-.8-1-.8v-.2c2.8-.8 5.8.2 8.5.8l-9.5-5.4-7.9-4.5c-4.6 3.7-9.1 5.6-9.7 11.7-.4 3.7.1 7.5 1.2 11.1C7 44 16.7 51.1 28.4 51.6c3 0 5.7-.6 8.5-1.7-2.7-2.3-4.7-4.8-5.1-8.5z" fill="#fff"/></svg>